<svg width="1200" height="1200" viewBox="160 20 360 360" xmlns="http://www.w3.org/2000/svg">
<defs>
<radialGradient id="whiteGlow" cx="50%" cy="44%" r="72%"><stop offset="0" stop-color="#ffffff"/><stop offset="1" stop-color="#e3e7ea"/></radialGradient>
<radialGradient id="plate" cx="50%" cy="40%" r="80%"><stop offset="0" stop-color="#1c7252"/><stop offset="1" stop-color="#0a2a20"/></radialGradient>
<linearGradient id="paper" x1="0" y1="0" x2="0" y2="1"><stop offset="0" stop-color="#fdfaf3"/><stop offset="1" stop-color="#e8decb"/></linearGradient>
<linearGradient id="gold" x1="0" y1="0" x2="1" y2="1"><stop offset="0" stop-color="#f0dca0"/><stop offset="1" stop-color="#b88e44"/></linearGradient>
<clipPath id="clipPlate"><rect x="174" y="34" width="332" height="332" rx="40"/></clipPath>
</defs>

<rect x="160" y="20" width="360" height="360" fill="url(#whiteGlow)"/>
<rect x="181" y="42" width="332" height="332" rx="40" fill="#6f807a" opacity="0.28"/>
<rect x="174" y="34" width="332" height="332" rx="40" fill="url(#plate)"/>
<g clip-path="url(#clipPlate)">
<path d="M506 318 A48 48 0 0 1 458 366" fill="none" stroke="#2f8a66" stroke-width="1.6" opacity="0.4"/>
<path d="M506 282 A84 84 0 0 1 422 366" fill="none" stroke="#2f8a66" stroke-width="1.6" opacity="0.4"/>
<path d="M506 246 A120 120 0 0 1 386 366" fill="none" stroke="#2f8a66" stroke-width="1.6" opacity="0.4"/>
<path d="M174 82 A48 48 0 0 0 222 34" fill="none" stroke="#2f8a66" stroke-width="1.6" opacity="0.3"/>
<path d="M174 118 A84 84 0 0 0 258 34" fill="none" stroke="#2f8a66" stroke-width="1.6" opacity="0.3"/>
<path d="M174 34 H506 V150 Q340 190 174 150 Z" fill="#ffffff" opacity="0.06"/>
</g>

<rect x="268" y="112" width="152" height="190" rx="14" fill="#061f17" opacity="0.3"/>
<rect x="272" y="116" width="152" height="190" rx="14" fill="#061f17" opacity="0.15"/>
<path transform="translate(6,7)" d="M275 104 H390 L416 130 V289 Q416 300 405 300 H275 Q264 300 264 289 V115 Q264 104 275 104 Z" fill="#c9bb96"/>
<path transform="translate(3,3.5)" d="M275 104 H390 L416 130 V289 Q416 300 405 300 H275 Q264 300 264 289 V115 Q264 104 275 104 Z" fill="#dccfb1"/>
<path d="M275 104 H390 L416 130 V289 Q416 300 405 300 H275 Q264 300 264 289 V115 Q264 104 275 104 Z" fill="url(#paper)"/>
<path d="M390 104 L416 130 L390 130 Z" fill="#e3d8bf"/>
<path d="M275 104 H320 L295 300 H275 Q264 300 264 289 V115 Q264 104 275 104 Z" fill="#ffffff" opacity="0.09"/>
<rect x="320" y="122" width="40" height="6" rx="3" fill="url(#gold)"/>
<rect x="288" y="136" width="104" height="3" fill="url(#gold)"/>
<text x="339" y="235" text-anchor="middle" font-family="'Yu Mincho','Hiragino Mincho ProN',serif" font-size="104" fill="#ffffff" opacity="0.25">特</text>
<text x="340" y="236" text-anchor="middle" font-family="'Yu Mincho','Hiragino Mincho ProN',serif" font-size="104" fill="#0a3527">特</text>
<rect x="300" y="262" width="16" height="4" rx="2" fill="#b6a06b"/><rect x="322" y="262" width="70" height="4" rx="2" fill="#cdd3cb"/>
<rect x="300" y="274" width="16" height="4" rx="2" fill="#b6a06b"/><rect x="322" y="274" width="54" height="4" rx="2" fill="#cdd3cb"/>
</svg>
